<svg xmlns="http://www.w3.org/2000/svg" width="336" height="32" viewBox="0 0 88.9 8.467"><path style="fill:#fc0;stroke-width:.26458332" d="M10.583 277.95h16.933v8.467H10.583zM57.15 277.95h16.933v8.467H57.15zM33.867 277.95H50.8v8.467H33.867z" transform="translate(-10.583 -277.95)"/><path style="fill:#fc0;stroke-width:.28063279" d="M80.433 277.95h19.05v8.467h-19.05z" transform="translate(-10.583 -277.95)"/><path style="fill:#a74093;fill-opacity:1;stroke:#8da8db;stroke-width:.26458332px;stroke-linecap:butt;stroke-linejoin:miter;stroke-opacity:1" d="m25.4 282.183 6.338-.016M29.633 280.067l2.038 2.166M29.633 284.3l1.972-2.067" transform="translate(-8.467 -277.95)"/><g aria-label="BasicRule" style="font-style:normal;font-variant:normal;font-weight:400;font-stretch:normal;font-size:2.11666656px;line-height:1.25;font-family:sans-serif;-inkscape-font-specification:'sans-serif, Normal';font-variant-ligatures:normal;font-variant-caps:normal;font-variant-numeric:normal;font-feature-settings:normal;text-align:start;letter-spacing:0;word-spacing:0;writing-mode:lr-tb;text-anchor:start;fill:#000;fill-opacity:1;stroke:none;stroke-width:.26458332"><path d="M14.348 282.11v.565h.335q.169 0 .25-.07.081-.07.081-.214t-.082-.212q-.08-.07-.249-.07zm0-.635v.465h.31q.152 0 .227-.057.075-.058.075-.176 0-.117-.075-.174-.075-.058-.228-.058zm-.208-.172h.533q.239 0 .368.1.13.098.13.281 0 .142-.067.226-.066.083-.194.104.154.033.238.139.086.104.086.261 0 .207-.14.32-.141.112-.4.112h-.554zM16.11 282.264q-.23 0-.32.053-.089.053-.089.18 0 .101.066.161.068.059.182.059.159 0 .254-.112.096-.112.096-.298v-.043zm.379-.078v.66h-.19v-.176q-.065.106-.163.157-.097.05-.237.05-.178 0-.283-.1-.105-.1-.105-.268 0-.195.13-.294.132-.1.391-.1h.267v-.018q0-.131-.087-.203-.086-.072-.242-.072-.1 0-.193.024-.094.024-.181.071v-.176q.104-.04.202-.06.099-.02.192-.02.25 0 .375.13.124.13.124.395zM17.619 281.723v.18q-.081-.042-.168-.062-.087-.021-.18-.021-.141 0-.213.043-.07.044-.07.13 0 .067.05.105.051.037.204.071l.065.015q.203.043.288.123.086.078.086.22 0 .161-.129.255-.127.094-.35.094-.093 0-.194-.019-.1-.017-.212-.053v-.197q.105.055.208.083.102.027.202.027.134 0 .207-.046.072-.046.072-.13 0-.077-.053-.119-.051-.04-.228-.08l-.066-.015q-.177-.037-.255-.113-.079-.078-.079-.212 0-.164.116-.252.116-.09.329-.09.105 0 .198.016.093.016.172.047zM17.983 281.689h.19v1.157h-.19zm0-.451h.19v.24h-.19zM19.404 281.733v.178q-.08-.045-.162-.066-.08-.023-.163-.023-.185 0-.287.118-.103.117-.103.328 0 .212.103.33.102.117.287.117.083 0 .163-.022.082-.022.162-.067v.176q-.08.037-.165.056-.085.018-.18.018-.262 0-.416-.164-.154-.164-.154-.444 0-.283.155-.445.156-.162.427-.162.087 0 .171.018.084.018.162.054zM20.475 282.123q.067.022.13.097.064.074.129.204l.211.422h-.224l-.197-.396q-.077-.155-.15-.205-.07-.051-.194-.051h-.228v.652h-.209v-1.543h.472q.264 0 .395.11.13.111.13.334 0 .146-.068.242t-.197.134zm-.523-.648v.547h.263q.15 0 .227-.069.078-.07.078-.205 0-.136-.078-.204-.076-.07-.227-.07zM21.091 282.39v-.701h.19v.693q0 .164.064.247.065.082.193.082.154 0 .243-.099.09-.098.09-.267v-.656h.19v1.157h-.19v-.178q-.07.106-.162.157-.09.051-.212.051-.2 0-.302-.124-.104-.124-.104-.363zm.479-.73zM22.452 281.238h.19v1.608h-.19zM24.03 282.22v.093h-.874q.013.196.118.3.106.102.296.102.11 0 .211-.027.104-.027.205-.08v.18q-.102.043-.21.065-.107.023-.218.023-.277 0-.439-.161-.161-.161-.161-.436 0-.285.153-.451.154-.167.414-.167.234 0 .37.15.136.15.136.409zm-.19-.056q-.002-.156-.087-.25-.085-.092-.226-.092-.159 0-.255.09-.095.09-.11.253z" style="font-style:normal;font-variant:normal;font-weight:400;font-stretch:normal;font-size:2.11666656px;font-family:sans-serif;-inkscape-font-specification:'sans-serif, Normal';font-variant-ligatures:normal;font-variant-caps:normal;font-variant-numeric:normal;font-feature-settings:normal;text-align:start;writing-mode:lr-tb;text-anchor:start;stroke-width:.26458332" transform="translate(-10.583 -277.95)"/></g><g aria-label="wl:" style="font-style:normal;font-weight:400;font-size:10.58333302px;line-height:1.25;font-family:sans-serif;letter-spacing:0;word-spacing:0;fill:#000;fill-opacity:1;stroke:none;stroke-width:.26458332"><path d="M40.53 281.631h.254l.317 1.205.315-1.205h.3l.316 1.205.316-1.205h.253l-.403 1.544h-.3l-.331-1.265-.334 1.265h-.299zM42.986 281.03h.253v2.145h-.253zM43.835 282.825h.29v.35h-.29zm0-1.11h.29v.35h-.29z" style="font-style:normal;font-variant:normal;font-weight:400;font-stretch:normal;font-size:2.82222223px;font-family:sans-serif;-inkscape-font-specification:'sans-serif, Normal';font-variant-ligatures:normal;font-variant-caps:normal;font-variant-numeric:normal;font-feature-settings:normal;text-align:start;writing-mode:lr-tb;text-anchor:start;stroke-width:.26458332" transform="translate(-10.583 -277.95)"/></g><g aria-label="x,y,..." style="font-style:normal;font-weight:400;font-size:10.58333302px;line-height:1.25;font-family:sans-serif;letter-spacing:0;word-spacing:0;fill:#000;fill-opacity:1;stroke:none;stroke-width:.26458332"><path d="m63.467 281.174-.558.751.587.793h-.3l-.449-.606-.449.606H62l.6-.808-.549-.736h.3l.408.55.41-.55zM63.919 282.368h.29v.237l-.225.44h-.178l.113-.44zM65.393 282.861q-.107.276-.21.36-.101.084-.272.084h-.203v-.212h.15q.104 0 .162-.05.058-.05.128-.234l.045-.116-.624-1.518h.269l.482 1.207.483-1.207h.268zM66.486 282.368h.29v.237l-.225.44h-.178l.113-.44zM67.354 282.368h.291v.35h-.29zM68.251 282.368h.291v.35h-.29zM69.148 282.368h.291v.35h-.29z" style="font-style:normal;font-variant:normal;font-weight:400;font-stretch:normal;font-size:2.82222223px;font-family:sans-serif;-inkscape-font-specification:'sans-serif, Normal';font-variant-ligatures:normal;font-variant-caps:normal;font-variant-numeric:normal;font-feature-settings:normal;text-align:start;writing-mode:lr-tb;text-anchor:start;stroke-width:.26458332" transform="translate(-10.583 -277.95)"/></g><g aria-label="mz:MATCHZONE" style="font-style:normal;font-weight:400;font-size:10.58333302px;line-height:1.25;font-family:sans-serif;letter-spacing:0;word-spacing:0;fill:#000;fill-opacity:1;stroke:none;stroke-width:.26458332"><path d="M82.627 282.028q.071-.128.17-.189.1-.06.234-.06.18 0 .28.126.097.126.097.36v.699h-.19v-.693q0-.166-.06-.247-.059-.08-.18-.08-.147 0-.233.098-.086.098-.086.267v.655h-.191v-.693q0-.167-.06-.247-.058-.08-.181-.08-.146 0-.232.099-.085.098-.085.266v.655h-.192v-1.158h.192v.18q.065-.107.156-.157.09-.05.216-.05t.214.063q.089.064.131.186zM83.705 281.806h.903v.174l-.715.832h.715v.152h-.929v-.174l.715-.832h-.69zM84.947 282.701h.218v.263h-.218zm0-.832h.218v.263h-.218zM85.62 281.42h.311l.394 1.05.396-1.05h.31v1.544h-.203v-1.355l-.398 1.058h-.21l-.397-1.058v1.355h-.203zM87.962 281.626l-.283.768h.567zm-.118-.205h.237l.588 1.543h-.217l-.14-.396h-.696l-.14.396h-.22zM88.516 281.42h1.305v.176h-.547v1.368h-.21v-1.368h-.548zM91.054 281.54v.22q-.105-.099-.225-.147-.119-.049-.253-.049-.265 0-.405.162t-.14.468q0 .305.14.467.14.161.405.161.134 0 .253-.049.12-.048.225-.146v.218q-.11.074-.232.111-.122.038-.259.038-.35 0-.551-.214-.202-.215-.202-.586 0-.372.202-.586.201-.215.551-.215.139 0 .26.037.124.036.231.11zM91.377 281.42h.209v.633h.758v-.632h.209v1.543h-.209v-.735h-.758v.735h-.21zM92.88 281.42h1.212v.16l-.976 1.208h1v.176h-1.26v-.16l.975-1.208h-.951zM95.045 281.562q-.228 0-.362.17-.133.17-.133.462 0 .291.133.46.134.17.362.17.227 0 .36-.17.133-.169.133-.46 0-.293-.134-.462-.132-.17-.36-.17zm0-.17q.324 0 .519.219.194.217.194.583 0 .365-.194.583-.195.217-.52.217t-.52-.217q-.194-.217-.194-.583t.194-.583q.195-.218.52-.218zM96.085 281.42h.28l.685 1.291v-1.29h.202v1.543h-.28l-.685-1.291v1.29h-.202zM97.668 281.42h.976v.176h-.767v.457h.735v.176h-.735v.559h.785v.176h-.994z" style="font-style:normal;font-variant:normal;font-weight:400;font-stretch:normal;font-size:2.11666656px;font-family:sans-serif;-inkscape-font-specification:'sans-serif, Normal';font-variant-ligatures:normal;font-variant-caps:normal;font-variant-numeric:normal;font-feature-settings:normal;text-align:start;writing-mode:lr-tb;text-anchor:start;stroke-width:.26458332" transform="translate(-10.583 -277.95)"/></g><path d="m25.4 282.183 6.338-.016M29.633 280.067l2.038 2.166M29.633 284.3l1.972-2.067" style="fill:#a74093;fill-opacity:1;stroke:#8da8db;stroke-width:.26458332px;stroke-linecap:butt;stroke-linejoin:miter;stroke-opacity:1" transform="translate(14.817 -277.95)"/><path d="m25.4 282.183 6.338-.016M29.633 280.067l2.038 2.166M29.633 284.3l1.972-2.067" style="fill:#a74093;fill-opacity:1;stroke:#8da8db;stroke-width:.26458332px;stroke-linecap:butt;stroke-linejoin:miter;stroke-opacity:1" transform="translate(38.1 -277.95)"/></svg>